<svg width="187" height="283" viewBox="0 0 187 283" fill="none" xmlns="http://www.w3.org/2000/svg">
<path d="M143.993 234.547L138.942 237.156L133.856 229.063L139.576 225.47L143.993 234.547Z" fill="#FFC09E"/>
<path d="M135.193 237.306L143.592 263.797C144.744 265.995 149.521 263.452 149.648 260.969L148.729 235.624C148.729 235.624 146.263 233.088 144.316 232.663C143.924 232.576 143.619 233.166 143.298 233.657C142.94 234.211 139.827 231.77 135.193 237.306Z" fill="#FFD84D"/>
<path d="M83.7274 127.766C83.8677 126.644 84.8218 125.814 85.9525 125.814L113.512 125.814C114.144 125.814 114.743 126.074 115.117 126.583C117.21 129.425 123.47 139.969 114.884 155.292C114.644 155.72 114.535 156.222 114.593 156.709L118.45 189.032C118.493 189.391 118.622 189.736 118.826 190.035L141.912 223.906C142.823 225.242 142.074 227.074 140.488 227.39L131.791 229.121C130.966 229.286 130.117 228.977 129.59 228.32L102.843 194.971C102.571 194.631 102.403 194.22 102.359 193.787L99.2473 163.05C99.1916 162.499 98.9403 161.98 98.5061 161.638C91.1092 155.803 81.3441 163.234 81.3925 155.958C81.4436 146.878 83.0886 132.876 83.7274 127.766Z" fill="black"/>
<path d="M98.9284 254.333L92.7115 254.108L89.3317 245.169L95.649 242.776L98.9284 254.333Z" fill="#FFC09E"/>
<path d="M88.9402 253.3L86.3382 280.972C86.54 283.447 91.9305 282.963 93.0176 280.732L102.055 257.034C102.055 257.034 100.773 253.737 99.1508 252.586C98.8226 252.354 98.3159 252.777 97.8241 253.104C97.2765 253.471 95.3661 250.007 88.9402 253.3Z" fill="#FFD84D"/>
<path d="M88.6639 247.294L95.3452 245.898C96.8818 245.576 98.0376 244.302 98.2099 242.738L85.4894 194.438L101.005 166.261C101.291 163.641 101.93 152.857 99.423 153.678L83.0055 148.37C81.5913 148.832 68.8135 193.233 68.8135 193.233C68.8135 193.233 85.2916 246.342 86.5562 246.967C87.1817 247.285 87.916 247.412 88.6639 247.294Z" fill="black"/>
<path d="M69.9642 194.326C71.5688 192.871 73.3955 192.726 74.1253 193.46C74.8143 194.158 74.565 195.704 73.8352 196.556C72.5706 198.029 69.4339 197.92 67.8021 196.175C66.3199 194.589 66.4423 192.05 67.4894 190.518C69.1393 188.098 73.0012 188.311 75.3582 189.467C77.7923 190.663 80.1583 193.632 79.3697 196.502C78.3362 200.264 72.7881 200.567 72.2306 200.59C71.7909 200.608 67.2627 200.717 64.4842 196.959C62.2314 193.918 62.7617 190.546 62.866 189.943" stroke="black" stroke-width="0.530153" stroke-miterlimit="10"/>
<path d="M106.322 194.503C104.827 192.858 102.968 192.527 102.152 193.207C101.377 193.851 101.481 195.46 102.148 196.402C103.299 198.034 106.513 198.229 108.353 196.606C110.026 195.133 110.148 192.522 109.228 190.854C107.777 188.216 103.807 188.053 101.287 189.005C98.6802 189.989 95.9696 192.794 96.4954 195.804C97.1844 199.752 102.828 200.609 103.394 200.686C103.843 200.749 108.462 201.302 111.676 197.735C114.277 194.848 114.069 191.348 114.019 190.718" stroke="black" stroke-width="0.530153" stroke-miterlimit="10"/>
<path d="M89.4817 42.1917C89.4817 42.1917 83.598 83.7905 86.0287 84.6022C88.4594 85.4183 101.815 81.3773 101.815 81.3773L111.319 58.3074L101.407 40.6517L89.4817 42.1917Z" fill="black"/>
<path d="M100.862 76.1461L98.9183 72.636C98.9183 72.636 110.098 70.2448 111.932 71.8375C113.766 73.4346 111.375 76.1461 111.375 76.1461H100.862Z" fill="#FFD84D"/>
<path d="M148.553 98.6775L116.862 91.5608C114.606 90.6789 113.488 88.1341 114.369 85.8789C115.251 83.6237 118.077 79.201 120.332 80.0829L146.302 88.3798L167.328 69.4781C169.013 67.7362 170.732 68.4952 172.474 70.1801C174.216 71.8649 172.452 73.541 170.768 75.2828L148.553 98.6775Z" fill="#FFC09E"/>
<path d="M104.586 72.9566C105.148 72.9873 117.977 77.9365 121.737 82.4996C125.497 87.0627 119.679 96.9129 118.082 105.662C116.485 114.411 117.681 124.745 114.38 126.36C111.078 127.975 95.6962 130.255 87.0957 126.303C83.0196 117.41 85.1576 107.974 84.3372 105.341C80.3225 92.4639 79.3134 77.9277 79.3134 77.9277L98.3116 73.8834L104.586 72.9566Z" fill="#FFD84D"/>
<path d="M97.3585 87.2867C97.9812 87.2867 98.4861 86.7818 98.4861 86.159C98.4861 85.5363 97.9812 85.0314 97.3585 85.0314C96.7357 85.0314 96.2308 85.5363 96.2308 86.159C96.2308 86.7818 96.7357 87.2867 97.3585 87.2867Z" fill="#121212"/>
<path d="M98.2397 95.5133C98.8625 95.5133 99.3673 95.0085 99.3673 94.3857C99.3673 93.763 98.8625 93.2581 98.2397 93.2581C97.617 93.2581 97.1121 93.763 97.1121 94.3857C97.1121 95.0085 97.617 95.5133 98.2397 95.5133Z" fill="#121212"/>
<path d="M88.5151 46.6314C88.5151 46.6314 88.1158 37.4043 90.0288 34.1355C91.9418 30.8668 105.21 30.1604 108.667 33.8021C108.667 33.8021 113.832 33.8065 116.964 40.9714C119.869 47.623 120.681 64.5021 106.416 64.6249L88.5151 46.6314Z" fill="black"/>
<path d="M99.2952 68.5335L101.186 71.3196L103.345 72.0655L107.272 71.8988V66.932L99.2952 68.5335Z" fill="black"/>
<path d="M102.468 65.8009C102.468 65.8009 99.2693 67.9815 96.0532 66.3142C94.4079 65.4586 91.885 61.286 90.7574 56.3851C89.2217 49.7247 90.4854 44.4903 91.4989 44.034C93.1179 43.3057 103.438 39.1462 107.992 47.3159C112.542 55.4856 111.068 56.135 111.068 56.135C111.068 56.135 112.217 63.9054 110.554 63.0762C110.554 63.0762 110.107 67.2532 109.475 68.9468C109.067 70.0349 109.146 76.9015 105.517 77.3754C103.477 77.6386 101.617 77.937 100.998 75.7256C100.257 73.0711 100.805 69.5435 100.805 69.5435L102.468 65.8009Z" fill="#FFC09E"/>
<path d="M96.3113 50.1812C96.1928 53.4017 94.6616 57.1487 95.0696 57.5129C95.776 58.1491 97.632 58.0131 97.7855 57.9341" stroke="black" stroke-width="0.394779" stroke-miterlimit="10" stroke-linecap="round"/>
<path d="M103.683 50.6329C101.638 49.2684 100.489 49.8431 100.489 49.8431" stroke="black" stroke-width="0.623616" stroke-miterlimit="10" stroke-linecap="round"/>
<path d="M90.5632 50.0891C92.6561 49.6108 93.5029 49.9136 93.5029 49.9136" stroke="black" stroke-width="0.623616" stroke-miterlimit="10" stroke-linecap="round"/>
<path d="M92.199 52.599C92.1552 52.9675 94.0901 53.2001 94.134 52.8315C94.1778 52.4586 93.783 52.1032 93.2433 52.0418C92.7124 51.9759 92.2429 52.226 92.199 52.599Z" fill="black"/>
<path d="M100.549 52.7827C100.505 53.1513 102.44 53.3838 102.484 53.0152C102.528 52.6423 102.133 52.2869 101.593 52.2255C101.062 52.1597 100.593 52.4098 100.549 52.7827Z" fill="black"/>
<path d="M96.8591 63.6864C97.6226 63.7522 99.0836 61.1943 99.1582 61.1109L94.9286 60.9968C95.3717 62.5281 96.2975 63.6338 96.8591 63.6864Z" fill="white"/>
<path d="M34.5895 28.6067C32.7818 24.6798 32.4878 15.58 34.743 14.0663C36.09 13.6933 36.8359 19.2041 36.8359 19.2041C36.8359 19.2041 35.9365 12.0041 37.6915 11.8944C39.4465 11.7847 40.1091 18.8882 40.1091 18.8882C40.1091 18.8882 39.6615 11.5083 41.2762 11.381C42.8908 11.2538 44.7336 23.5391 44.7336 23.5391C44.7336 23.5391 47.4934 19.9807 48.4016 20.3274C50.9157 21.2882 48.0331 25.7592 47.704 27.9179C47.217 31.1252 47.3705 32.7706 47.1248 34.9556C46.7168 38.5973 40.5654 36.8642 37.674 33.7402C36.9237 32.9285 35.0502 29.6115 34.5895 28.6067Z" fill="#FFC09E"/>
<path d="M177.985 71.639C178.087 71.4506 188.074 61.9647 186.895 58.9462C186.018 57.8862 182.311 61.9163 182.311 61.9163C182.311 61.9163 187.094 56.6057 185.738 55.5242C184.383 54.4427 179.852 59.8125 179.852 59.8125C179.852 59.8125 184.366 54.1091 183.134 53.0975C181.902 52.086 173.498 60.9693 173.498 60.9693C173.498 60.9693 173.277 56.5411 172.341 56.3097C169.769 55.6694 168.392 62.3467 167.509 64.3052C167.235 64.9186 163.898 72.2904 165.292 73.3019C166.777 74.378 167.875 74.0548 169.564 74.9588C171.378 75.9219 177.985 71.639 177.985 71.639Z" fill="#FFC09E"/>
<path d="M74.1012 86.3125C74.0003 86.2686 73.8994 86.2204 73.7985 86.1721L50.3863 74.0492L36.4688 29.3396C35.7493 27.0273 37.0392 24.5659 39.3559 23.8463C41.6681 23.1268 44.1296 24.4167 44.8491 26.7334L57.6741 67.9417L77.8307 78.3797C79.9806 79.4942 80.823 82.1399 79.7086 84.2942C78.6512 86.3432 76.1897 87.2032 74.1012 86.3125Z" fill="#FFC09E"/>
<path d="M97.0884 75.5646C97.0884 75.5646 78.3918 76.1108 74.7765 74.7594C69.8931 72.9342 65.6415 72.061 65.6415 72.061L67.436 90.6074L83.7271 91.5639L86.9389 83.0563L97.0884 75.5646Z" fill="#FFD84D"/>
<path d="M108.705 73.7165C108.705 73.7165 115.835 75.5881 119.823 76.5944C125.887 78.1246 132.192 83.1323 132.192 83.1323L127.637 99.7613L116.045 95.5184L108.705 73.7165Z" fill="#FFD84D"/>
<path d="M97.7567 71.2764L101.188 71.3202L103.956 79.5514L97.6207 76.1466L97.7567 71.2764Z" fill="#FFD84D"/>
<path d="M108.079 71.2764L104.644 71.3202L101.88 79.5514L108.211 76.1466L108.079 71.2764Z" fill="#FFD84D"/>
<path d="M117.496 71.1235C117.395 72.1634 118.088 85.0278 117.044 85.0804C114.53 85.1989 109.221 83.0007 106.729 81.3071C104.645 79.8899 105.487 58.4477 105.724 55.4027C105.957 52.3709 103.772 45.8597 99.6561 46.2809C95.5405 46.7021 85.3613 48.4484 83.9968 44.4469C81.4607 37.0143 91.9866 33.9913 91.9866 33.9913C91.9866 33.9913 102.745 35.1013 104.478 35.5401C105.685 35.8472 111.432 39.8706 114.82 42.2926C116.219 43.293 116.64 47.1935 118.619 50.8791L117.496 71.1235Z" fill="black"/>
</svg>
