<svg width="202" height="304" viewBox="0 0 202 304" fill="none" xmlns="http://www.w3.org/2000/svg">
<path d="M154.776 248.459L121.036 132.285" stroke="#0E0F25" stroke-width="4.74234" stroke-miterlimit="10" stroke-linecap="round"/>
<path d="M147.031 221.781L124.442 263.827H39.2925C39.2925 263.827 33.1526 244.651 17.4587 248.459C5.47971 251.365 3.11863 262.193 3.11863 262.193" stroke="#0E0F25" stroke-width="4.74234" stroke-miterlimit="10" stroke-linecap="round"/>
<path d="M174.813 252.302C171.692 248.893 167.205 246.756 162.219 246.756C152.79 246.756 145.147 254.399 145.147 263.828" stroke="#0E0F25" stroke-width="4.74234" stroke-miterlimit="10" stroke-linecap="round"/>
<path d="M162.826 279.266C156.206 279.266 150.839 273.899 150.839 267.279C150.839 260.659 156.206 255.292 162.826 255.292C169.446 255.292 174.813 260.659 174.813 267.279C174.813 273.899 169.446 279.266 162.826 279.266Z" fill="#FF5A3D"/>
<path d="M21.2266 279.266C14.6063 279.266 9.23954 273.899 9.23954 267.279C9.23954 260.659 14.6063 255.292 21.2266 255.292C27.8468 255.292 33.2136 260.659 33.2136 267.279C33.2136 273.899 27.8468 279.266 21.2266 279.266Z" fill="#FF5A3D"/>
<path d="M25.2813 234.115L31.404 238.89L47.5966 225.615L40.6549 220.867L25.2813 234.115Z" fill="#FFB68F"/>
<path d="M34.736 234.277C34.736 234.277 43.7647 247.81 50.2103 254.545C51.9478 256.361 48.4746 260.055 48.4746 260.055L20.551 239.664C20.0924 239.335 19.9448 238.722 20.208 238.223C21.1476 236.44 23.9187 231.762 26.2512 231.094C26.7202 230.96 27.1391 231.649 27.5705 232.226C28.0491 232.866 26.9532 236.731 32.9006 236.217C33.4579 236.169 34.0406 234.401 34.736 234.277Z" fill="#FF5A3D"/>
<path d="M58.7269 256.004L65.4396 256.036L64.3512 240.798L56.5079 240.761L58.7269 256.004Z" fill="#FFB68F"/>
<path fill-rule="evenodd" clip-rule="evenodd" d="M48.1296 232.433L35.2542 219.255L52.1591 202.637L75.4042 176.335L53.1736 125.612C53.1736 125.612 69.8475 123.984 71.1795 125.612C72.5115 127.241 72.614 130.57 72.614 130.57L93.3711 177.816L72.5408 205.113L52.1591 227.923L48.1296 232.433Z" fill="#E6E7E8"/>
<path opacity="0.29" d="M52.1592 202.638V227.924L72.541 205.114L71.7975 180.417L52.1592 202.638Z" fill="#0E0F25"/>
<path fill-rule="evenodd" clip-rule="evenodd" d="M68.9174 242.216L53.0302 242.142L55.8921 189.78L40.4201 153.609C37.1057 145.86 36.9177 137.13 39.8956 129.246C39.8956 129.246 40.4405 127.324 42.5922 125.706C44.7439 124.087 64.8268 125.111 64.8268 125.111L65.6216 126.463L67.0978 142.88L63.2259 152.38L69.3425 188.712L68.9174 242.216Z" fill="#E6E7E8"/>
<path d="M65.2877 248.799C65.2877 248.799 80.3521 254.94 89.466 256.902C91.9228 257.431 91.1188 262.437 91.1188 262.437L56.5643 261.214C56 261.199 55.5338 260.774 55.4717 260.213C55.2499 258.21 54.9211 252.783 56.4776 250.922C56.7905 250.548 57.524 250.884 58.2047 251.119C58.96 251.381 60.2198 255.195 64.856 251.435C65.2904 251.082 64.7813 249.292 65.2877 248.799Z" fill="#0E0F25"/>
<path d="M131.244 128.652L115.261 132.285L99.2784 135.917" stroke="#0E0F25" stroke-width="8.5362" stroke-miterlimit="10" stroke-linecap="round"/>
<path d="M70.7201 67.1705L72.8666 69.4286L71.232 74.9485L68.8923 67.7726L70.7201 67.1705Z" fill="#0E0F25"/>
<path d="M118.422 124.125C118.088 124.185 118.143 124.385 118.153 124.584C118.217 125.798 115.321 127.034 116.812 128.378C118.302 129.721 120.889 127.954 122.789 128.947C124.69 129.94 124.336 132.951 123.299 135.036C123.156 135.322 123.408 135.823 123.747 135.838C125.31 135.905 125.766 134.169 125.888 132.847C125.889 133.443 125.671 134.144 125.675 134.725C125.68 135.306 126.26 135.862 126.911 135.338C127.746 134.665 127.958 133.173 127.876 132.109C128.04 132.16 128.454 133.966 129.102 133.046C130.529 131.018 130.139 126.899 127.633 124.269C127.406 124.03 119.934 122.871 118.422 124.125Z" fill="#FFB68F"/>
<path d="M99.6541 129.093C99.3196 129.153 99.3743 129.352 99.3848 129.552C99.4488 130.766 99.3842 133.997 99.3842 133.997C99.3842 133.997 102.121 132.922 104.021 133.914C105.921 134.907 105.568 137.919 104.53 140.003C104.388 140.29 104.639 140.791 104.979 140.805C106.542 140.872 106.998 139.136 107.12 137.814C107.12 138.41 106.903 139.111 106.907 139.692C106.911 140.273 107.492 140.83 108.143 140.305C108.977 139.632 109.19 138.141 109.107 137.076C109.272 137.127 109.686 138.933 110.333 138.014C111.76 135.986 111.371 131.866 108.865 129.236C108.637 128.998 101.166 127.838 99.6541 129.093Z" fill="#FFB68F"/>
<path d="M124.813 124.668C124.813 124.668 120.591 122.883 117.684 121.365C108.787 116.719 99.379 102.887 99.379 102.887L72.8697 73.2375L70.2201 90.7907L91.2642 107.967L116.995 128.52L124.813 124.668Z" fill="#FFB68F"/>
<path d="M63.2813 67.1706C63.2813 67.1706 60.2808 64.8197 53.7745 68.8768C35.3519 80.3645 40.0617 122.013 40.0617 122.013C40.0617 122.013 42.2819 126.967 43.6804 127.381C45.0789 127.795 65.2626 129.388 69.1464 128.152C73.0302 126.916 73.5126 126.321 74.0011 117.736L76.8457 84.168C77.1818 78.2612 74.4331 72.5664 69.527 69.2599C68.1651 68.3421 66.9068 67.7575 65.9715 67.8292C65.7167 67.8487 63.2813 67.1706 63.2813 67.1706Z" fill="#0E0F25"/>
<path d="M101.756 128.519C101.756 128.519 105.084 127.663 105.802 128.049C106.519 128.436 107.734 129.794 107.734 129.794L103.042 129.695L101.756 128.519Z" fill="#FFB68F"/>
<path d="M46.2202 81.6958C47.202 76.2864 57.2166 74.6303 60.4094 80.3711C60.7973 81.0685 61.1731 81.8431 61.5346 82.6638L61.5349 82.6634L61.5372 82.6697C62.3674 84.5557 63.1196 86.6894 63.7602 88.7246L72.7583 113.234L97.699 128.227L105.554 128.612C105.554 128.612 103.137 134.733 100.05 134.785C96.9638 134.836 64.5659 119.085 64.5659 119.085L53.4984 100.995C53.4984 100.995 53.4865 100.976 53.4671 100.944C53.4671 100.944 45.5455 85.4127 46.2202 81.6958Z" fill="#FFB68F"/>
<path d="M26.8193 116.931C27.5068 119.608 29.4483 121.791 32.034 122.769C34.8013 123.811 38.308 124.658 40.4613 123.404C40.5953 123.326 40.7207 123.24 40.8375 123.14C44.3095 120.33 42.2773 109.481 42.2773 109.481C42.2773 109.481 42.5714 88.2767 42.8654 85.2846C43.1594 82.288 40.1153 80.3467 38.7922 78.3619C38.5198 77.9512 37.9361 77.6138 37.1362 77.3761C34.0489 76.4507 27.7273 77.0085 23.3905 80.7185C19.0493 84.4327 24.4282 107.57 26.8193 116.931Z" fill="#F2A600"/>
<path d="M53.3507 104.905C53.3507 104.905 48.8089 115.078 41.5404 116.154C40.4445 116.317 41.5404 112.76 41.5404 112.76C41.5404 112.76 43.9938 111.186 45.7325 108.951C47.4713 106.715 50.8145 100.775 50.8145 100.775L53.3507 104.905Z" fill="#F2A600"/>
<path d="M62.8272 38.359C62.8192 36.7526 62.097 34.8317 61.0924 33.6591C59.1003 31.3337 56.1133 29.5115 53.2979 29.9614C50.4826 30.4113 50.4679 30.1362 47.8502 32.1485C42.395 36.3417 36.9888 43.1563 35.3427 50.5878C34.4157 54.7734 33.7994 60.7822 32.8436 64.5213C32.1972 67.0499 30.8755 70.6043 29.8462 71.1897C27.1361 72.7308 26.7178 71.2292 24.5764 70.8063C26.7056 73.5202 27.2212 74.7245 31.4899 76.2615C32.0305 76.4561 38.6313 77.1795 40.8867 75.7434C42.8635 74.4846 44.6973 70.0292 45.3284 68.4841C49.1189 59.2055 46.682 49.9384 53.5626 42.5746C55.2297 40.7904 60.2545 39.0708 62.8272 38.359Z" fill="#121430"/>
<path d="M36.4169 107.966C36.4169 107.966 35.3036 109.841 31.5042 109.676C27.7048 109.51 25.3771 107.966 25.3771 107.966" fill="#0E0F25"/>
<path opacity="0.35" d="M35.3115 100.504L40.8375 123.14C44.3095 120.329 42.2773 109.481 42.2773 109.481C42.2773 109.481 42.5714 88.2762 42.8654 85.2841C43.1594 82.2875 40.1153 80.3462 38.7922 78.3614C38.5198 77.9507 37.9361 77.6133 37.1362 77.3756C37.1362 77.3756 31.4502 77.8728 30.5638 80.1904C29.6818 82.5081 35.3115 100.504 35.3115 100.504Z" fill="#231F20"/>
<path d="M31.2856 77.2101C31.2856 77.2101 25.3925 79.0295 24.5093 81.3478C23.6261 83.6662 29.2564 101.661 29.2564 101.661" stroke="#0E0F25" stroke-width="0.432391" stroke-miterlimit="10"/>
<path d="M30.6588 77.8731C31.1239 77.5999 31.0082 76.8961 30.4791 76.7909C28.5509 76.4074 25.2681 75.9166 24.0522 76.7145C23.8789 76.8282 23.7174 76.9494 23.5672 77.0754C22.4083 78.0475 22.98 79.9334 24.4845 80.0897L25.1818 80.1621C25.3085 80.1753 25.436 80.1469 25.5452 80.0813L26.6466 79.4192C26.6466 79.4192 23.3898 78.9985 24.1074 78.2257C24.825 77.4529 25.2666 76.9868 26.3706 77.2094C27.2961 77.3961 29.5509 77.8142 30.2558 77.9445C30.3947 77.9702 30.537 77.9447 30.6588 77.8731Z" fill="#0E0F25"/>
<path d="M63.3859 83.739C63.3859 83.739 63.8771 69.6218 57.5844 67.5519C51.2917 65.4819 42.5992 72.1334 39.9496 80.358L42.2128 83.8355C42.2128 83.8355 44.6461 73.7203 52.1394 70.7702C56.4156 69.0866 56.6551 70.8086 58.9381 73.0717C61.4478 75.5597 61.5829 79.2519 61.5829 79.2519L63.3859 83.739Z" fill="#F2A600"/>
<path d="M65.3114 34.9918C64.9469 36.856 61.4785 38.9614 59.1131 39.3812C56.7477 39.801 55.9864 41.8629 55.5665 39.4975C55.1467 37.1321 58.9905 33.6622 61.3559 33.2424C63.7213 32.8226 65.7722 32.634 65.3114 34.9918Z" fill="#FF5454"/>
<path d="M83.205 45.3811C83.205 45.3811 86.8922 41.0766 85.8075 37.8346C84.7228 34.5926 79.2256 25.2691 67.7695 30.3152C67.7695 30.3152 63.2053 29.362 59.11 35.1184C55.3112 40.4582 51.4738 55.2278 64.055 57.9744L83.205 45.3811Z" fill="#121430"/>
<path d="M72.2691 62.7527L70.5497 69.0316L68.5718 70.7698L66.8839 65.1367L67.4843 59.6003L72.2691 62.7527Z" fill="#121430"/>
<path d="M67.9124 61.4595C67.9124 61.4595 75.864 64.0337 79.0888 63.1321C83.4915 61.9011 83.959 43.8614 82.6304 42.8946C81.3019 41.9278 73.4799 36.0375 67.8112 42.572C62.1425 49.1065 63.3548 49.9731 63.3548 49.9731C63.3548 49.9731 58.8246 49.3536 58.2823 52.0575C57.74 54.7615 60.8416 56.7893 62.505 56.3538C62.505 56.3538 63.1888 63.4874 60.9397 66.7165C62.2864 68.8357 69.5765 77.3756 69.5765 77.3756L71.397 65.9373L67.9124 61.4595Z" fill="#FFB68F"/>
<path d="M79.5576 46.9277C80.2909 49.8182 82.4054 52.9059 82.1058 53.3189C81.59 54.03 79.8857 54.2682 79.7334 54.2277" stroke="#121430" stroke-width="0.472043" stroke-miterlimit="10" stroke-linecap="round"/>
<path d="M72.5805 49.4208C74.7835 47.0984 76.2321 47.6472 76.2321 47.6472" stroke="#121430" stroke-width="0.745696" stroke-miterlimit="10" stroke-linecap="round"/>
<path d="M85.3166 46.2704C83.3462 46.0156 82.593 46.3709 82.593 46.3709" stroke="#121430" stroke-width="0.745696" stroke-miterlimit="10" stroke-linecap="round"/>
<path d="M76.0883 50.4997C76.1621 50.8364 75.948 51.1707 75.6077 51.2453C75.5036 51.2681 75.4046 51.2644 75.3071 51.2348C75.0907 51.1767 74.9138 51.0009 74.8629 50.7683C74.8043 50.501 74.925 50.2381 75.1428 50.103C75.1999 50.065 75.2663 50.0359 75.3392 50.0199C75.6794 49.9454 76.0137 50.1595 76.0883 50.4997Z" fill="#121430"/>
<path d="M84.0357 48.7301C84.1095 49.0668 83.8954 49.4011 83.5587 49.4749C83.2185 49.5495 82.8841 49.3353 82.8103 48.9987C82.7358 48.6585 82.9499 48.3242 83.2901 48.2496C83.6268 48.1758 83.9612 48.3899 84.0357 48.7301Z" fill="#121430"/>
<path d="M79.0904 59.1542C78.4917 59.2344 77.3867 56.9061 77.3297 56.8317L80.6422 56.6287C80.2718 58.052 79.5283 59.0955 79.0904 59.1542Z" fill="white"/>
<path d="M62.1457 49.7828C62.1457 49.7828 65.2286 51.0943 66.5205 50.1198C67.8125 49.1453 69.0797 41.4349 72.7254 42.5951C76.3711 43.7553 84.2912 43.7904 87.3303 41.3318C90.3694 38.8732 83.0173 33.3408 83.0173 33.3408C83.0173 33.3408 73.0673 32.3066 71.4128 32.3746C70.2618 32.4219 64.295 34.977 60.7702 36.5278C59.3124 37.1691 58.6391 38.8582 59.2512 40.3285L62.1457 49.7828Z" fill="#121430"/>
<path d="M59.6187 67.1705L60.6675 62.4184C60.6675 62.4184 68.3218 66.6135 68.6621 69.1527C69.0025 71.6918 70.2169 77.3762 70.2169 77.3762L68.6621 79.4749L59.6187 67.1705Z" fill="#0E0F25"/>
</svg>
