<svg aria-hidden="true" style="position: absolute; width: 0; height: 0; overflow: hidden;" version="1.1" xmlns="http://www.w3.org/2000/svg" xmlns:xlink="http://www.w3.org/1999/xlink">
<defs>
<symbol id="icon-file-text2" viewBox="0 0 32 32">
<path d="M28.681 7.159c-0.694-0.947-1.662-2.053-2.724-3.116s-2.169-2.030-3.116-2.724c-1.612-1.182-2.393-1.319-2.841-1.319h-15.5c-1.378 0-2.5 1.121-2.5 2.5v27c0 1.378 1.122 2.5 2.5 2.5h23c1.378 0 2.5-1.122 2.5-2.5v-19.5c0-0.448-0.137-1.23-1.319-2.841zM24.543 5.457c0.959 0.959 1.712 1.825 2.268 2.543h-4.811v-4.811c0.718 0.556 1.584 1.309 2.543 2.268zM28 29.5c0 0.271-0.229 0.5-0.5 0.5h-23c-0.271 0-0.5-0.229-0.5-0.5v-27c0-0.271 0.229-0.5 0.5-0.5 0 0 15.499-0 15.5 0v7c0 0.552 0.448 1 1 1h7v19.5z"></path>
<path d="M23 26h-14c-0.552 0-1-0.448-1-1s0.448-1 1-1h14c0.552 0 1 0.448 1 1s-0.448 1-1 1z"></path>
<path d="M23 22h-14c-0.552 0-1-0.448-1-1s0.448-1 1-1h14c0.552 0 1 0.448 1 1s-0.448 1-1 1z"></path>
<path d="M23 18h-14c-0.552 0-1-0.448-1-1s0.448-1 1-1h14c0.552 0 1 0.448 1 1s-0.448 1-1 1z"></path>
</symbol>
<symbol id="icon-copy" viewBox="0 0 32 32">
<path d="M20 8v-8h-14l-6 6v18h12v8h20v-24h-12zM6 2.828v3.172h-3.172l3.172-3.172zM2 22v-14h6v-6h10v6l-6 6v8h-10zM18 10.828v3.172h-3.172l3.172-3.172zM30 30h-16v-14h6v-6h10v20z"></path>
</symbol>
<symbol id="icon-heart" viewBox="0 0 32 32">
<path d="M23.6 2c-3.363 0-6.258 2.736-7.599 5.594-1.342-2.858-4.237-5.594-7.601-5.594-4.637 0-8.4 3.764-8.4 8.401 0 9.433 9.516 11.906 16.001 21.232 6.13-9.268 15.999-12.1 15.999-21.232 0-4.637-3.763-8.401-8.4-8.401z"></path>
</symbol>
</defs>
</svg>
